# xmcd CD database file
#
# Track frame offsets:
#	150
#	20306
#	33686
#	47160
#	59348
#	81168
#	97069
#	113584
#	127503
#	141285
#
# Disc length: 2064 seconds
#
# Revision: 2
# Processed by: cddbd v1.5.1PL2 Copyright (c) Steve Scherf et al.
# Submitted via: CDex 1.51
#
DISCID=7f080e0a
DTITLE=Daptone Records - Various Artists - The Dynamic Funk and Soul Sound of Daptone Records
DYEAR=2006
DGENRE=Soul
TTITLE0=Sharon Jones and The Dap-Kings/What if We All Stopped Paying Taxes
TTITLE1=The Budos Band/King Charles
TTITLE2=Sugarman 3 and Co (Feat. Lee Fields)/Shot Down
TTITLE3=Charles Bradley and The Bullets/Can't Stop Thinking about you Baby
TTITLE4=Antibalas Afrobeat Orchestra/Che Che Cole
TTITLE5=The Poets Of Rhythm/The Upper Class
TTITLE6=The Mighty Imperials (Feat. Joseph Henry)/Never Found a Girl
TTITLE7=The Budos Band/Budos Theme
TTITLE8=Sugarman 3 and Co (Feat Bernard Purdie)/Modern Jive
TTITLE9=Sharon Jones and The Dap-Kings/Just Dropped in to See what Condition My Condition Was In
EXTD=YEAR: 2006
EXTT0=
EXTT1=
EXTT2=
EXTT3=
EXTT4=
EXTT5=
EXTT6=
EXTT7=
EXTT8=
EXTT9=
PLAYORDER=
